<svg width="13" height="15" viewBox="0 0 13 15" fill="none" xmlns="http://www.w3.org/2000/svg">
<path d="M0.875 6.875C0.875 4.53125 0.875 3.35937 1.47187 2.53812C1.66441 2.27292 1.89747 2.03965 2.1625 1.84687C2.98438 1.25 4.15687 1.25 6.5 1.25C8.84313 1.25 10.0156 1.25 10.8369 1.84687C11.1021 2.0396 11.3354 2.27287 11.5281 2.53812C12.125 3.35937 12.125 4.53187 12.125 6.875V8.125C12.125 10.4688 12.125 11.6406 11.5281 12.4619C11.3354 12.7271 11.1021 12.9604 10.8369 13.1531C10.0156 13.75 8.84313 13.75 6.5 13.75C4.15687 13.75 2.98437 13.75 2.16312 13.1531C1.89787 12.9604 1.6646 12.7271 1.47187 12.4619C0.875 11.6406 0.875 10.4681 0.875 8.125V6.875Z" stroke="white" stroke-width="0.75"/>
<path d="M3.375 5.625C3.375 5.29348 3.5067 4.97554 3.74112 4.74112C3.97554 4.5067 4.29348 4.375 4.625 4.375H8.375C8.70652 4.375 9.02446 4.5067 9.25888 4.74112C9.4933 4.97554 9.625 5.29348 9.625 5.625C9.625 5.95652 9.4933 6.27446 9.25888 6.50888C9.02446 6.7433 8.70652 6.875 8.375 6.875H4.625C4.29348 6.875 3.97554 6.7433 3.74112 6.50888C3.5067 6.27446 3.375 5.95652 3.375 5.625ZM3.375 5.625H0.875M12.125 5.625H9.9375" stroke="white" stroke-width="0.75"/>
</svg>
