<svg width="15" height="15" viewBox="0 0 15 15" fill="none" xmlns="http://www.w3.org/2000/svg">
<path d="M2.47187 12.4619C2.6646 12.7271 2.89787 12.9604 3.16312 13.1531C3.98437 13.75 5.15687 13.75 7.5 13.75C9.84313 13.75 11.0156 13.75 11.8369 13.1531C12.1021 12.9604 12.3354 12.7271 12.5281 12.4619C13.125 11.6406 13.125 10.4681 13.125 8.125V8.02063C13.125 7.5325 13.125 7.28812 12.9956 7.11937C12.9625 7.0762 12.9238 7.03754 12.8806 7.00437C12.7119 6.875 12.4681 6.875 11.9794 6.875H3.02063C2.53188 6.875 2.28813 6.875 2.11938 7.00437C2.07563 7.03771 2.03729 7.07604 2.00438 7.11937C1.875 7.28812 1.875 7.53188 1.875 8.02063V8.125C1.875 8.85563 1.875 9.4725 1.89313 10" stroke="#10171F" stroke-width="0.75" stroke-linecap="round"/>
<path d="M5 6.875C5 7.20652 5.1317 7.52446 5.36612 7.75888C5.60054 7.9933 5.91848 8.125 6.25 8.125H8.75C9.08152 8.125 9.39946 7.9933 9.63388 7.75888C9.8683 7.52446 10 7.20652 10 6.875M2.1875 3.71312V2.89062C2.1875 2.4555 2.36035 2.0382 2.66803 1.73053C2.9757 1.42285 3.393 1.25 3.82812 1.25C4.55333 1.25 5.24883 1.53809 5.76162 2.05088C6.27442 2.56367 6.5625 3.25917 6.5625 3.98438V6.875H4.24625V5.7725C4.24625 5.63602 4.19208 5.50512 4.09563 5.40856C3.99918 5.312 3.86835 5.25767 3.73188 5.2575C3.52909 5.25758 3.32828 5.21771 3.14092 5.14017C2.95355 5.06262 2.78329 4.94893 2.63987 4.80557C2.49646 4.66221 2.38269 4.492 2.30507 4.30466C2.22745 4.11732 2.1875 3.91591 2.1875 3.71312ZM12.8125 3.71312V2.89062C12.8125 2.4555 12.6396 2.0382 12.332 1.73053C12.0243 1.42285 11.607 1.25 11.1719 1.25C10.4467 1.25 9.75117 1.53809 9.23838 2.05088C8.72558 2.56367 8.4375 3.25917 8.4375 3.98438V6.875H10.7537V5.7725C10.7537 5.48813 10.9844 5.2575 11.2681 5.2575C11.4709 5.25758 11.6717 5.21771 11.8591 5.14017C12.0465 5.06262 12.2167 4.94893 12.3601 4.80557C12.5035 4.66221 12.6173 4.492 12.6949 4.30466C12.7725 4.11732 12.8125 3.91591 12.8125 3.71312Z" stroke="#10171F" stroke-width="0.75"/>
</svg>
