<svg width="24" height="24" viewBox="0 0 24 24" fill="none" xmlns="http://www.w3.org/2000/svg">
<path d="M15.8849 2.18994H8.11494C7.5381 2.18994 6.98488 2.41909 6.57698 2.82698C6.16909 3.23488 5.93994 3.7881 5.93994 4.36494V19.6349C5.93994 20.2118 6.16909 20.765 6.57698 21.1729C6.98488 21.5808 7.5381 21.8099 8.11494 21.8099H15.8849C16.4618 21.8099 17.015 21.5808 17.4229 21.1729C17.8308 20.765 18.0599 20.2118 18.0599 19.6349V4.36494C18.0599 3.7881 17.8308 3.23488 17.4229 2.82698C17.015 2.41909 16.4618 2.18994 15.8849 2.18994ZM16.4399 19.6349C16.4399 19.7821 16.3815 19.9233 16.2774 20.0274C16.1733 20.1315 16.0321 20.1899 15.8849 20.1899H8.11494C7.96775 20.1899 7.82658 20.1315 7.7225 20.0274C7.61841 19.9233 7.55994 19.7821 7.55994 19.6349V4.36494C7.55994 4.21775 7.61841 4.07658 7.7225 3.9725C7.82658 3.86841 7.96775 3.80994 8.11494 3.80994H15.8849C16.0321 3.80994 16.1733 3.86841 16.2774 3.9725C16.3815 4.07658 16.4399 4.21775 16.4399 4.36494V19.6349Z" fill="white"/>
<path d="M12.7499 17.9399H11.2499C11.0351 17.9399 10.8291 18.0253 10.6772 18.1772C10.5253 18.3291 10.4399 18.5351 10.4399 18.7499C10.4399 18.9648 10.5253 19.1708 10.6772 19.3227C10.8291 19.4746 11.0351 19.5599 11.2499 19.5599H12.7499C12.9648 19.5599 13.1708 19.4746 13.3227 19.3227C13.4746 19.1708 13.5599 18.9648 13.5599 18.7499C13.5599 18.5351 13.4746 18.3291 13.3227 18.1772C13.1708 18.0253 12.9648 17.9399 12.7499 17.9399Z" fill="white"/>
</svg>
